<svg width="41" height="41" viewBox="0 0 41 41" fill="none" xmlns="http://www.w3.org/2000/svg">
<circle cx="20.5" cy="20.5" r="20.5" fill="#F2EFEA"/>
<path d="M20 10H18C13 10 11 12 11 17V23C11 28 13 30 18 30H24C29 30 31 28 31 23V21" stroke="#1A1818" stroke-width="1.5" stroke-linecap="round" stroke-linejoin="round"/>
<path d="M25.0399 11.0198L17.1599 18.8998C16.8599 19.1998 16.5599 19.7898 16.4999 20.2198L16.0699 23.2298C15.9099 24.3198 16.6799 25.0798 17.7699 24.9298L20.7799 24.4998C21.1999 24.4398 21.7899 24.1398 22.0999 23.8398L29.9799 15.9598C31.3399 14.5998 31.9799 13.0198 29.9799 11.0198C27.9799 9.01976 26.3999 9.65976 25.0399 11.0198Z" stroke="#1A1818" stroke-width="1.5" stroke-miterlimit="10" stroke-linecap="round" stroke-linejoin="round"/>
<path d="M23.9102 12.1499C24.5802 14.5399 26.4502 16.4099 28.8502 17.0899" stroke="#1A1818" stroke-width="1.5" stroke-miterlimit="10" stroke-linecap="round" stroke-linejoin="round"/>
</svg>
