<svg width="27" height="27" viewBox="0 0 27 27" fill="none" xmlns="http://www.w3.org/2000/svg">
<path d="M12.1745 1.35566C12.5168 -0.0276263 14.4832 -0.0276258 14.8255 1.35566C15.0994 2.46217 16.5284 2.7659 17.2286 1.86645C18.104 0.742004 19.9004 1.54179 19.6505 2.94474C19.4506 4.06698 20.6325 4.92565 21.638 4.38878C22.8951 3.71761 24.2109 5.17889 23.412 6.35893C22.7729 7.30284 23.5034 8.56799 24.6403 8.48652C26.0617 8.38468 26.6694 10.2548 25.4596 11.0079C24.4918 11.6103 24.6446 13.0631 25.7164 13.4511C27.0563 13.9362 26.8507 15.8918 25.4393 16.0877C24.3102 16.2444 23.8587 17.6338 24.6801 18.4242C25.7069 19.4124 24.7237 21.1153 23.3545 20.7201C22.2593 20.404 21.2818 21.4897 21.7107 22.5458C22.2467 23.8662 20.6559 25.022 19.5659 24.1041C18.6939 23.3699 17.3594 23.9641 17.3215 25.1034C17.2742 26.5276 15.3509 26.9364 14.7284 25.6546C14.2304 24.6292 12.7696 24.6292 12.2716 25.6546C11.6491 26.9364 9.72576 26.5276 9.67847 25.1034C9.64065 23.9641 8.30607 23.3699 7.43413 24.1041C6.34407 25.022 4.75325 23.8662 5.28935 22.5458C5.71817 21.4897 4.74066 20.404 3.64547 20.7201C2.27632 21.1153 1.29314 19.4124 2.31992 18.4242C3.14125 17.6338 2.68982 16.2444 1.56075 16.0877C0.14925 15.8918 -0.0562906 13.9362 1.28363 13.4511C2.35545 13.0631 2.50815 11.6103 1.54043 11.0079C0.330644 10.2548 0.938282 8.38468 2.35966 8.48652C3.49664 8.56799 4.22708 7.30284 3.58803 6.35893C2.78914 5.17889 4.10489 3.71761 5.36196 4.38878C6.36751 4.92565 7.54937 4.06698 7.34951 2.94474C7.09964 1.54179 8.896 0.742004 9.7714 1.86645C10.4716 2.7659 11.9006 2.46217 12.1745 1.35566Z" fill="#0283BE"/>
</svg>
