<svg width="1920" height="1080" viewBox="0 0 1920 1080" fill="none" xmlns="http://www.w3.org/2000/svg">
<path d="M17.5575 592.169L158.564 472.216C166.497 465.468 167.922 453.761 161.841 445.305L12.5453 237.715C2.29692 223.465 -20.0257 228.386 -23.3333 245.624L-79.0859 536.192C-80.691 544.558 -76.8213 553.022 -69.4442 557.281L-5.40158 594.256C1.9229 598.485 11.1156 597.649 17.5575 592.169Z" fill="#A396EC"/>
<path d="M333.519 867.087L121.635 1077.94C109.242 1090.27 117.524 1111.44 134.995 1112.1L679.177 1132.45C689.419 1132.83 698.292 1125.41 699.727 1115.26L714.421 1011.34C715.741 1002 710.359 993.006 701.505 989.759L354.513 862.487C347.216 859.811 339.028 861.604 333.519 867.087Z" fill="#0283BE"/>
<path d="M1815.38 692.277C1818.55 702.507 1829.25 708.478 1839.44 705.185C1890.31 688.749 1936.37 660.992 1974.14 623.886C2016.41 582.358 2046.93 530.462 2062.86 473.005C2078.8 415.548 2079.64 354.389 2065.3 295.193C2052.49 242.285 2027.93 192.475 1993.53 149.421C1986.72 140.887 1974.21 140.071 1965.92 147.186L1723.45 355.395C1717.4 360.59 1715.02 368.881 1717.38 376.496L1815.38 692.277Z" fill="#F4C345"/>
<path d="M1698.74 915.857L1555.65 1186.05C1551.66 1193.56 1543.37 1197.74 1534.96 1196.46L1298.36 1160.39C1280.91 1157.73 1275.21 1135.42 1289.24 1124.72L1654.45 846.103C1665.41 837.746 1681.34 842.711 1685.6 855.814L1700.08 900.306C1701.76 905.458 1701.28 911.069 1698.74 915.857Z" fill="#F2A6A1"/>
</svg>
