<svg width="1342" height="803" viewBox="0 0 1342 803" fill="none" xmlns="http://www.w3.org/2000/svg">
<path d="M907.83 999.805L383.375 695.563C378.125 692.517 371.776 692.021 366.116 694.212L-145.362 892.287C-164.151 899.563 -161.606 926.915 -141.798 930.6L898.754 1124.18C911.479 1126.54 923.067 1116.38 922.384 1103.46L917.767 1016.05C917.411 1009.3 913.673 1003.19 907.83 999.805Z" fill="#F2A6A1"/>
<path d="M373.695 473.505L646.654 375.027C656.451 371.493 667.321 376.068 671.64 385.545L841.862 759.014C849.142 774.986 833.786 791.918 817.181 786.229L374.487 634.554C366.428 631.793 361.003 624.231 360.969 615.713L360.483 492.397C360.45 483.94 365.74 476.375 373.695 473.505Z" fill="#A396EC"/>
<path d="M966.548 817.771L861.224 599.428C853.628 583.681 868.471 566.454 885.168 571.638L1313.43 704.594C1323.21 707.633 1329.12 717.579 1327.11 727.628L1310.79 808.983C1308.93 818.229 1300.87 824.924 1291.44 825.048L984.824 829.08C977.052 829.182 969.925 824.772 966.548 817.771Z" fill="#0283BE"/>
<path d="M-175.89 819.548C-185.729 823.782 -197.197 819.528 -201.493 809.716C-234.574 734.157 -248.93 652.437 -243.291 571.08C-237.216 483.435 -208.133 399.047 -158.736 325.733C-109.339 252.418 -41.2253 192.549 39.2956 151.67C114.051 113.718 197.255 93.2745 282.214 91.8633C293.134 91.6819 301.881 100.641 301.857 111.563L300.797 601.251C300.78 609.225 296.028 616.426 288.704 619.579L-175.89 819.548Z" fill="#F4C345"/>
</svg>
