<svg width="93" height="97" viewBox="0 0 93 97" fill="none" xmlns="http://www.w3.org/2000/svg">
<mask id="path-1-outside-1_208_285" maskUnits="userSpaceOnUse" x="1" y="59" width="93" height="40" fill="black">
<rect fill="white" x="1" y="59" width="93" height="40"/>
<path d="M2.76953 89V60.3672H15.5625C19.5859 60.3672 21.9102 62.5742 21.9102 65.9531C21.9102 67.9648 21.0703 70.3281 18.4336 71.1484C21.3633 72.6328 22.9648 75.3672 22.9648 79.0586C22.9648 85.3672 18.6484 89 11.9297 89H2.76953ZM6.40234 84.4883C6.40234 85.3086 7.04688 85.9141 8.02344 85.9141H11.4023C16.2266 85.9141 19.3125 83.2969 19.3125 78.9414C19.3125 74.6641 16.2266 72.0273 11.4023 72.0273H8.14062C7.10547 72.0273 6.40234 72.7305 6.40234 73.7852V84.4883ZM6.40234 67.4961C6.40234 68.3555 7.02734 68.9414 8.02344 68.9414H15.1523C17.125 68.9414 18.2773 67.8281 18.2773 66.207C18.2773 64.5469 17.125 63.4531 15.1523 63.4531H8.02344C7.02734 63.4531 6.40234 64.0195 6.40234 64.8789V67.4961ZM32.6914 89.3906C28.3945 89.3906 25.4844 86.8906 25.4844 83.043V75.1914C25.4844 71.3828 28.3945 68.8242 32.6914 68.8242C36.8906 68.8242 39.7031 71.3828 39.7031 75.6602V79.8984H30.1133C29.4492 79.8984 29.0586 80.2891 29.0586 80.9727V82.5547C29.0586 84.8398 30.5039 86.2852 32.6914 86.2852C34.8398 86.2852 36.2852 84.8398 36.2852 82.5547V81.8906H39.7031V83.043C39.7031 86.8906 36.8906 89.3906 32.6914 89.3906ZM29.0586 76.207C29.0586 76.8906 29.4492 77.2617 30.1133 77.2617H35.2109C35.8945 77.2617 36.2852 76.8906 36.2852 76.207V75.6602C36.2852 73.4336 34.8398 71.9297 32.6914 71.9297C30.5039 71.9297 29.0586 73.4336 29.0586 75.6602V76.207ZM43.0234 89V60.3672H46.5V71.2266C47.5156 69.7812 49.1758 68.9414 51.2656 68.9414C54.8203 68.9414 57.2812 71.4023 57.2812 75.1523V83.1797C57.2812 86.9102 54.8203 89.3906 51.2656 89.3906C49.1758 89.3906 47.5156 88.5508 46.5 87.1055V89H43.0234ZM46.5 82.6914C46.5 84.9375 47.9648 86.4219 50.1523 86.4219C52.3203 86.4219 53.7656 84.9375 53.7656 82.6914V75.6211C53.7656 73.3945 52.3203 71.9102 50.1523 71.9102C47.9648 71.9102 46.5 73.3945 46.5 75.6211V82.6914ZM65.7578 89.2344C62.2422 89.2344 59.8594 86.9297 59.8594 83.375C59.8594 79.8594 62.2617 77.418 65.9727 77.418H68.9414C70.0352 77.418 70.7383 76.6758 70.7383 75.6992V75.25C70.7383 73.3164 69.332 71.9297 67.2422 71.9297C65.1133 71.9297 63.668 73.375 63.668 75.4453V76.2852H60.1328V75.4062C60.1328 71.4805 63.0039 68.8633 67.2617 68.8633C71.6172 68.8633 74.2734 71.3047 74.2734 75.0547V89H70.7578V87.0078C69.7422 88.5703 68.2969 89.2344 66.4023 89.2344H65.7578ZM63.4141 83.1211C63.4141 84.9961 64.7031 86.2266 66.6367 86.2266H67.7305C69.625 86.2266 70.8555 84.9961 70.8555 83.1211V81.7344C70.8555 80.7773 70.2109 80.1523 69.2148 80.1523H66.6367C64.7031 80.1523 63.4141 81.3633 63.4141 83.1211ZM88.1602 69.3711H91.8711L86.6953 97.0078H83.4141L84.4688 90.8555C84.6641 89.7812 84.1562 89 82.8672 89H80.4062L76.6758 69.3711H80.5039L83.2773 85.4844C83.3359 85.875 83.5898 86.0898 83.8828 86.0898H84.8398C85.1328 86.0898 85.3672 85.875 85.4453 85.4844L88.1602 69.3711Z"/>
</mask>
<path d="M2.76953 89V60.3672H15.5625C19.5859 60.3672 21.9102 62.5742 21.9102 65.9531C21.9102 67.9648 21.0703 70.3281 18.4336 71.1484C21.3633 72.6328 22.9648 75.3672 22.9648 79.0586C22.9648 85.3672 18.6484 89 11.9297 89H2.76953ZM6.40234 84.4883C6.40234 85.3086 7.04688 85.9141 8.02344 85.9141H11.4023C16.2266 85.9141 19.3125 83.2969 19.3125 78.9414C19.3125 74.6641 16.2266 72.0273 11.4023 72.0273H8.14062C7.10547 72.0273 6.40234 72.7305 6.40234 73.7852V84.4883ZM6.40234 67.4961C6.40234 68.3555 7.02734 68.9414 8.02344 68.9414H15.1523C17.125 68.9414 18.2773 67.8281 18.2773 66.207C18.2773 64.5469 17.125 63.4531 15.1523 63.4531H8.02344C7.02734 63.4531 6.40234 64.0195 6.40234 64.8789V67.4961ZM32.6914 89.3906C28.3945 89.3906 25.4844 86.8906 25.4844 83.043V75.1914C25.4844 71.3828 28.3945 68.8242 32.6914 68.8242C36.8906 68.8242 39.7031 71.3828 39.7031 75.6602V79.8984H30.1133C29.4492 79.8984 29.0586 80.2891 29.0586 80.9727V82.5547C29.0586 84.8398 30.5039 86.2852 32.6914 86.2852C34.8398 86.2852 36.2852 84.8398 36.2852 82.5547V81.8906H39.7031V83.043C39.7031 86.8906 36.8906 89.3906 32.6914 89.3906ZM29.0586 76.207C29.0586 76.8906 29.4492 77.2617 30.1133 77.2617H35.2109C35.8945 77.2617 36.2852 76.8906 36.2852 76.207V75.6602C36.2852 73.4336 34.8398 71.9297 32.6914 71.9297C30.5039 71.9297 29.0586 73.4336 29.0586 75.6602V76.207ZM43.0234 89V60.3672H46.5V71.2266C47.5156 69.7812 49.1758 68.9414 51.2656 68.9414C54.8203 68.9414 57.2812 71.4023 57.2812 75.1523V83.1797C57.2812 86.9102 54.8203 89.3906 51.2656 89.3906C49.1758 89.3906 47.5156 88.5508 46.5 87.1055V89H43.0234ZM46.5 82.6914C46.5 84.9375 47.9648 86.4219 50.1523 86.4219C52.3203 86.4219 53.7656 84.9375 53.7656 82.6914V75.6211C53.7656 73.3945 52.3203 71.9102 50.1523 71.9102C47.9648 71.9102 46.5 73.3945 46.5 75.6211V82.6914ZM65.7578 89.2344C62.2422 89.2344 59.8594 86.9297 59.8594 83.375C59.8594 79.8594 62.2617 77.418 65.9727 77.418H68.9414C70.0352 77.418 70.7383 76.6758 70.7383 75.6992V75.25C70.7383 73.3164 69.332 71.9297 67.2422 71.9297C65.1133 71.9297 63.668 73.375 63.668 75.4453V76.2852H60.1328V75.4062C60.1328 71.4805 63.0039 68.8633 67.2617 68.8633C71.6172 68.8633 74.2734 71.3047 74.2734 75.0547V89H70.7578V87.0078C69.7422 88.5703 68.2969 89.2344 66.4023 89.2344H65.7578ZM63.4141 83.1211C63.4141 84.9961 64.7031 86.2266 66.6367 86.2266H67.7305C69.625 86.2266 70.8555 84.9961 70.8555 83.1211V81.7344C70.8555 80.7773 70.2109 80.1523 69.2148 80.1523H66.6367C64.7031 80.1523 63.4141 81.3633 63.4141 83.1211ZM88.1602 69.3711H91.8711L86.6953 97.0078H83.4141L84.4688 90.8555C84.6641 89.7812 84.1562 89 82.8672 89H80.4062L76.6758 69.3711H80.5039L83.2773 85.4844C83.3359 85.875 83.5898 86.0898 83.8828 86.0898H84.8398C85.1328 86.0898 85.3672 85.875 85.4453 85.4844L88.1602 69.3711Z" fill="black"/>
<path d="M2.76953 89H1.76953V90H2.76953V89ZM2.76953 60.3672V59.3672H1.76953V60.3672H2.76953ZM18.4336 71.1484L18.1365 70.1936L15.7821 70.9261L17.9816 72.0405L18.4336 71.1484ZM3.76953 89V60.3672H1.76953V89H3.76953ZM2.76953 61.3672H15.5625V59.3672H2.76953V61.3672ZM15.5625 61.3672C17.3971 61.3672 18.7222 61.869 19.5767 62.6369C20.4193 63.3941 20.9102 64.5039 20.9102 65.9531H22.9102C22.9102 64.0234 22.2389 62.3403 20.9135 61.1493C19.6 59.9689 17.7513 59.3672 15.5625 59.3672V61.3672ZM20.9102 65.9531C20.9102 67.7332 20.187 69.5557 18.1365 70.1936L18.7307 72.1033C21.9536 71.1006 22.9102 68.1965 22.9102 65.9531H20.9102ZM17.9816 72.0405C20.5367 73.335 21.9648 75.6989 21.9648 79.0586H23.9648C23.9648 75.0355 22.1899 71.9306 18.8856 70.2564L17.9816 72.0405ZM21.9648 79.0586C21.9648 81.9715 20.977 84.1669 19.3044 85.6459C17.6157 87.1391 15.1168 88 11.9297 88V90C15.4613 90 18.48 89.0445 20.6292 87.1442C22.7945 85.2296 23.9648 82.4542 23.9648 79.0586H21.9648ZM11.9297 88H2.76953V90H11.9297V88ZM5.40234 84.4883C5.40234 85.1742 5.67823 85.8043 6.17913 86.2534C6.6736 86.6967 7.32887 86.9141 8.02344 86.9141V84.9141C7.74144 84.9141 7.58617 84.8287 7.51422 84.7642C7.44872 84.7055 7.40234 84.6226 7.40234 84.4883H5.40234ZM8.02344 86.9141H11.4023V84.9141H8.02344V86.9141ZM11.4023 86.9141C13.9876 86.9141 16.2214 86.2121 17.8238 84.8147C19.4427 83.4028 20.3125 81.3707 20.3125 78.9414H18.3125C18.3125 80.8676 17.6393 82.3218 16.5092 83.3074C15.3626 84.3074 13.6413 84.9141 11.4023 84.9141V86.9141ZM20.3125 78.9414C20.3125 76.5461 19.4391 74.5298 17.8223 73.1254C16.2215 71.7351 13.9894 71.0273 11.4023 71.0273V73.0273C13.6395 73.0273 15.3625 73.638 16.5108 74.6354C17.6429 75.6187 18.3125 77.0594 18.3125 78.9414H20.3125ZM11.4023 71.0273H8.14062V73.0273H11.4023V71.0273ZM8.14062 71.0273C7.39085 71.0273 6.68923 71.2865 6.17338 71.8065C5.65799 72.326 5.40234 73.0308 5.40234 73.7852H7.40234C7.40234 73.4849 7.49826 73.3107 7.59322 73.215C7.68772 73.1198 7.85525 73.0273 8.14062 73.0273V71.0273ZM5.40234 73.7852V84.4883H7.40234V73.7852H5.40234ZM5.40234 67.4961C5.40234 68.1808 5.65854 68.8214 6.16861 69.2827C6.66977 69.7359 7.33168 69.9414 8.02344 69.9414V67.9414C7.7191 67.9414 7.57046 67.8539 7.5101 67.7993C7.45865 67.7528 7.40234 67.6708 7.40234 67.4961H5.40234ZM8.02344 69.9414H15.1523V67.9414H8.02344V69.9414ZM15.1523 69.9414C16.3229 69.9414 17.3633 69.6093 18.1234 68.9256C18.8935 68.2328 19.2773 67.2662 19.2773 66.207H17.2773C17.2773 66.769 17.085 67.1695 16.7858 67.4387C16.4766 67.7168 15.9545 67.9414 15.1523 67.9414V69.9414ZM19.2773 66.207C19.2773 65.1343 18.8975 64.1604 18.1234 63.4641C17.3606 62.7779 16.3184 62.4531 15.1523 62.4531V64.4531C15.959 64.4531 16.4793 64.6752 16.7858 64.951C17.081 65.2165 17.2773 65.6196 17.2773 66.207H19.2773ZM15.1523 62.4531H8.02344V64.4531H15.1523V62.4531ZM8.02344 62.4531C7.34033 62.4531 6.67959 62.6488 6.1758 63.0956C5.66006 63.5531 5.40234 64.1925 5.40234 64.8789H7.40234C7.40234 64.7059 7.45713 64.6325 7.50291 64.5919C7.56064 64.5407 7.71045 64.4531 8.02344 64.4531V62.4531ZM5.40234 64.8789V67.4961H7.40234V64.8789H5.40234ZM39.7031 79.8984V80.8984H40.7031V79.8984H39.7031ZM36.2852 81.8906V80.8906H35.2852V81.8906H36.2852ZM39.7031 81.8906H40.7031V80.8906H39.7031V81.8906ZM32.6914 88.3906C30.7324 88.3906 29.1811 87.8219 28.1349 86.9069C27.1014 86.0031 26.4844 84.6976 26.4844 83.043H24.4844C24.4844 85.236 25.3224 87.1043 26.8183 88.4124C28.3013 89.7093 30.3535 90.3906 32.6914 90.3906V88.3906ZM26.4844 83.043V75.1914H24.4844V83.043H26.4844ZM26.4844 75.1914C26.4844 73.5581 27.1003 72.2451 28.1381 71.3295C29.1868 70.4043 30.7383 69.8242 32.6914 69.8242V67.8242C30.3477 67.8242 28.2956 68.5235 26.815 69.8297C25.3235 71.1456 24.4844 73.0161 24.4844 75.1914H26.4844ZM32.6914 69.8242C34.5888 69.8242 36.0754 70.3994 37.0808 71.3609C38.0804 72.3168 38.7031 73.7481 38.7031 75.6602H40.7031C40.7031 73.2948 39.9196 71.3082 38.4631 69.9154C37.0125 68.5283 34.9932 67.8242 32.6914 67.8242V69.8242ZM38.7031 75.6602V79.8984H40.7031V75.6602H38.7031ZM39.7031 78.8984H30.1133V80.8984H39.7031V78.8984ZM30.1133 78.8984C29.5856 78.8984 29.0387 79.0576 28.6251 79.4769C28.2131 79.8944 28.0586 80.4429 28.0586 80.9727H30.0586C30.0586 80.8957 30.0697 80.8586 30.0727 80.8501C30.0747 80.8444 30.0696 80.8604 30.0488 80.8815C30.0277 80.9029 30.0097 80.9101 30.0103 80.9099C30.0136 80.9087 30.0442 80.8984 30.1133 80.8984V78.8984ZM28.0586 80.9727V82.5547H30.0586V80.9727H28.0586ZM28.0586 82.5547C28.0586 83.9108 28.4914 85.1114 29.3409 85.9772C30.1918 86.8445 31.3722 87.2852 32.6914 87.2852V85.2852C31.8232 85.2852 31.1871 85.0031 30.7685 84.5765C30.3485 84.1484 30.0586 83.4837 30.0586 82.5547H28.0586ZM32.6914 87.2852C33.996 87.2852 35.1664 86.8414 36.0105 85.9744C36.8526 85.1095 37.2852 83.9107 37.2852 82.5547H35.2852C35.2852 83.4839 34.9951 84.1503 34.5774 84.5793C34.1617 85.0063 33.5353 85.2852 32.6914 85.2852V87.2852ZM37.2852 82.5547V81.8906H35.2852V82.5547H37.2852ZM36.2852 82.8906H39.7031V80.8906H36.2852V82.8906ZM38.7031 81.8906V83.043H40.7031V81.8906H38.7031ZM38.7031 83.043C38.7031 84.7091 38.1019 86.0168 37.1028 86.9166C36.0934 87.8256 34.5954 88.3906 32.6914 88.3906V90.3906C34.9866 90.3906 36.9945 89.7056 38.4412 88.4027C39.8981 87.0906 40.7031 85.2245 40.7031 83.043H38.7031ZM28.0586 76.207C28.0586 76.7375 28.2138 77.2875 28.6346 77.7026C29.0531 78.1155 29.5994 78.2617 30.1133 78.2617V76.2617C30.0388 76.2617 30.0043 76.2512 29.9985 76.2491C29.996 76.2483 30.0002 76.2495 30.0087 76.2547C30.0175 76.26 30.0282 76.268 30.0392 76.2788C30.0502 76.2897 30.0586 76.3006 30.0644 76.3099C30.0702 76.3191 30.0718 76.324 30.0712 76.3224C30.0697 76.3183 30.0586 76.2841 30.0586 76.207H28.0586ZM30.1133 78.2617H35.2109V76.2617H30.1133V78.2617ZM35.2109 78.2617C35.7273 78.2617 36.2784 78.1195 36.7019 77.7073C37.1297 77.291 37.2852 76.7377 37.2852 76.207H35.2852C35.2852 76.2842 35.274 76.3175 35.2729 76.3204C35.2726 76.3215 35.2745 76.3159 35.2806 76.3062C35.2869 76.2963 35.2957 76.285 35.3069 76.2741C35.3314 76.2503 35.3499 76.2447 35.3431 76.247C35.3333 76.2504 35.2931 76.2617 35.2109 76.2617V78.2617ZM37.2852 76.207V75.6602H35.2852V76.207H37.2852ZM37.2852 75.6602C37.2852 74.328 36.8494 73.1339 36.0144 72.2664C35.1761 71.3957 34.0074 70.9297 32.6914 70.9297V72.9297C33.5239 72.9297 34.152 73.2157 34.5735 73.6535C34.9982 74.0947 35.2852 74.7657 35.2852 75.6602H37.2852ZM32.6914 70.9297C31.3608 70.9297 30.1822 71.3923 29.3369 72.2636C28.4945 73.132 28.0586 74.3279 28.0586 75.6602H30.0586C30.0586 74.7659 30.3453 74.0965 30.7724 73.6563C31.1967 73.219 31.8345 72.9297 32.6914 72.9297V70.9297ZM28.0586 75.6602V76.207H30.0586V75.6602H28.0586ZM43.0234 89H42.0234V90H43.0234V89ZM43.0234 60.3672V59.3672H42.0234V60.3672H43.0234ZM46.5 60.3672H47.5V59.3672H46.5V60.3672ZM46.5 71.2266H45.5V74.3889L47.3182 71.8015L46.5 71.2266ZM46.5 87.1055L47.3182 86.5305L45.5 83.9431V87.1055H46.5ZM46.5 89V90H47.5V89H46.5ZM44.0234 89V60.3672H42.0234V89H44.0234ZM43.0234 61.3672H46.5V59.3672H43.0234V61.3672ZM45.5 60.3672V71.2266H47.5V60.3672H45.5ZM47.3182 71.8015C48.1243 70.6544 49.4607 69.9414 51.2656 69.9414V67.9414C48.8909 67.9414 46.907 68.9081 45.6818 70.6516L47.3182 71.8015ZM51.2656 69.9414C52.8055 69.9414 54.0409 70.4697 54.8913 71.3396C55.743 72.2109 56.2812 73.5001 56.2812 75.1523H58.2812C58.2812 73.0546 57.589 71.2383 56.3216 69.9416C55.0528 68.6436 53.2805 67.9414 51.2656 67.9414V69.9414ZM56.2812 75.1523V83.1797H58.2812V75.1523H56.2812ZM56.2812 83.1797C56.2812 84.8211 55.7436 86.1112 54.8905 86.9859C54.039 87.859 52.8032 88.3906 51.2656 88.3906V90.3906C53.2827 90.3906 55.0547 89.682 56.3223 88.3823C57.5884 87.0841 58.2812 85.2687 58.2812 83.1797H56.2812ZM51.2656 88.3906C49.4607 88.3906 48.1243 87.6776 47.3182 86.5305L45.6818 87.6804C46.907 89.4239 48.8909 90.3906 51.2656 90.3906V88.3906ZM45.5 87.1055V89H47.5V87.1055H45.5ZM46.5 88H43.0234V90H46.5V88ZM45.5 82.6914C45.5 84.0354 45.9422 85.2332 46.7921 86.0993C47.6436 86.967 48.826 87.4219 50.1523 87.4219V85.4219C49.2912 85.4219 48.6475 85.1345 48.2196 84.6985C47.7903 84.261 47.5 83.5935 47.5 82.6914H45.5ZM50.1523 87.4219C51.4718 87.4219 52.6461 86.965 53.4898 86.0952C54.3308 85.2281 54.7656 84.0316 54.7656 82.6914H52.7656C52.7656 83.5973 52.4777 84.266 52.0542 84.7027C51.6332 85.1366 51.0008 85.4219 50.1523 85.4219V87.4219ZM54.7656 82.6914V75.6211H52.7656V82.6914H54.7656ZM54.7656 75.6211C54.7656 74.2884 54.3294 73.0968 53.4884 72.233C52.6451 71.3669 51.4717 70.9102 50.1523 70.9102V72.9102C51.0009 72.9102 51.6342 73.1956 52.0555 73.6283C52.4792 74.0634 52.7656 74.7272 52.7656 75.6211H54.7656ZM50.1523 70.9102C48.8261 70.9102 47.6445 71.3649 46.7934 72.2289C45.9436 73.0917 45.5 74.2846 45.5 75.6211H47.5C47.5 74.7311 47.7888 74.0685 48.2183 73.6324C48.6465 73.1976 49.291 72.9102 50.1523 72.9102V70.9102ZM45.5 75.6211V82.6914H47.5V75.6211H45.5ZM63.668 76.2852V77.2852H64.668V76.2852H63.668ZM60.1328 76.2852H59.1328V77.2852H60.1328V76.2852ZM74.2734 89V90H75.2734V89H74.2734ZM70.7578 89H69.7578V90H70.7578V89ZM70.7578 87.0078H71.7578V83.6344L69.9194 86.4628L70.7578 87.0078ZM65.7578 88.2344C64.222 88.2344 63.0132 87.7348 62.1923 86.9256C61.3732 86.1181 60.8594 84.9226 60.8594 83.375H58.8594C58.8594 85.3821 59.537 87.1163 60.7882 88.3498C62.0376 89.5816 63.778 90.2344 65.7578 90.2344V88.2344ZM60.8594 83.375C60.8594 81.8507 61.3757 80.6293 62.2266 79.7901C63.0779 78.9505 64.3411 78.418 65.9727 78.418V76.418C63.8933 76.418 62.0998 77.1061 60.8222 78.3661C59.5443 79.6265 58.8594 81.3836 58.8594 83.375H60.8594ZM65.9727 78.418H68.9414V76.418H65.9727V78.418ZM68.9414 78.418C69.7208 78.418 70.4316 78.1492 70.9515 77.6375C71.4703 77.1268 71.7383 76.4332 71.7383 75.6992H69.7383C69.7383 75.9418 69.6547 76.1076 69.5485 76.2122C69.4434 76.3156 69.2557 76.418 68.9414 76.418V78.418ZM71.7383 75.6992V75.25H69.7383V75.6992H71.7383ZM71.7383 75.25C71.7383 74.0322 71.2905 72.9346 70.4665 72.1434C69.6447 71.3544 68.5119 70.9297 67.2422 70.9297V72.9297C68.0623 72.9297 68.6775 73.1984 69.0813 73.5861C69.4829 73.9717 69.7383 74.5343 69.7383 75.25H71.7383ZM67.2422 70.9297C65.9462 70.9297 64.7898 71.3736 63.9538 72.1999C63.1172 73.0267 62.668 74.1709 62.668 75.4453H64.668C64.668 74.6494 64.9414 74.0358 65.3597 73.6224C65.7786 73.2084 66.4092 72.9297 67.2422 72.9297V70.9297ZM62.668 75.4453V76.2852H64.668V75.4453H62.668ZM63.668 75.2852H60.1328V77.2852H63.668V75.2852ZM61.1328 76.2852V75.4062H59.1328V76.2852H61.1328ZM61.1328 75.4062C61.1328 73.6998 61.7499 72.34 62.776 71.4C63.8101 70.4527 65.3366 69.8633 67.2617 69.8633V67.8633C64.929 67.8633 62.891 68.5824 61.4251 69.9252C59.9513 71.2752 59.1328 73.1869 59.1328 75.4062H61.1328ZM67.2617 69.8633C69.2576 69.8633 70.7522 70.4212 71.7348 71.2986C72.7055 72.1654 73.2734 73.4287 73.2734 75.0547H75.2734C75.2734 72.9307 74.5133 71.0983 73.0669 69.8068C71.6326 68.526 69.6213 67.8633 67.2617 67.8633V69.8633ZM73.2734 75.0547V89H75.2734V75.0547H73.2734ZM74.2734 88H70.7578V90H74.2734V88ZM71.7578 89V87.0078H69.7578V89H71.7578ZM69.9194 86.4628C69.1161 87.6986 68.0131 88.2344 66.4023 88.2344V90.2344C68.5807 90.2344 70.3682 89.4421 71.5963 87.5528L69.9194 86.4628ZM66.4023 88.2344H65.7578V90.2344H66.4023V88.2344ZM62.4141 83.1211C62.4141 84.2959 62.8235 85.3446 63.6074 86.098C64.3874 86.8476 65.4561 87.2266 66.6367 87.2266V85.2266C65.8837 85.2266 65.3411 84.9903 64.9932 84.6559C64.6492 84.3253 64.4141 83.8213 64.4141 83.1211H62.4141ZM66.6367 87.2266H67.7305V85.2266H66.6367V87.2266ZM67.7305 87.2266C68.8983 87.2266 69.9481 86.843 70.7089 86.0856C71.4701 85.3279 71.8555 84.282 71.8555 83.1211H69.8555C69.8555 83.8352 69.6256 84.342 69.2979 84.6683C68.9698 84.9948 68.4572 85.2266 67.7305 85.2266V87.2266ZM71.8555 83.1211V81.7344H69.8555V83.1211H71.8555ZM71.8555 81.7344C71.8555 81.0244 71.611 80.3554 71.1034 79.8652C70.5991 79.3781 69.9236 79.1523 69.2148 79.1523V81.1523C69.5022 81.1523 69.647 81.239 69.714 81.3038C69.7777 81.3653 69.8555 81.4873 69.8555 81.7344H71.8555ZM69.2148 79.1523H66.6367V81.1523H69.2148V79.1523ZM66.6367 79.1523C65.4609 79.1523 64.3988 79.5231 63.6207 80.244C62.8365 80.9704 62.4141 81.9862 62.4141 83.1211H64.4141C64.4141 82.4982 64.6361 82.0296 64.9799 81.7111C65.3297 81.3871 65.8789 81.1523 66.6367 81.1523V79.1523ZM88.1602 69.3711V68.3711H87.3145L87.1741 69.205L88.1602 69.3711ZM91.8711 69.3711L92.854 69.5552L93.0758 68.3711H91.8711V69.3711ZM86.6953 97.0078V98.0078H87.5254L87.6782 97.1919L86.6953 97.0078ZM83.4141 97.0078L82.4284 96.8388L82.228 98.0078H83.4141V97.0078ZM84.4688 90.8555L83.4848 90.6766L83.4831 90.6865L84.4688 90.8555ZM80.4062 89L79.4238 89.1867L79.5784 90H80.4062V89ZM76.6758 69.3711V68.3711H75.4678L75.6934 69.5578L76.6758 69.3711ZM80.5039 69.3711L81.4894 69.2015L81.3465 68.3711H80.5039V69.3711ZM83.2773 85.4844L84.2663 85.336L84.2647 85.3254L84.2629 85.3147L83.2773 85.4844ZM85.4453 85.4844L86.4259 85.6805L86.4289 85.6655L86.4314 85.6505L85.4453 85.4844ZM88.1602 70.3711H91.8711V68.3711H88.1602V70.3711ZM90.8882 69.187L85.7124 96.8237L87.6782 97.1919L92.854 69.5552L90.8882 69.187ZM86.6953 96.0078H83.4141V98.0078H86.6953V96.0078ZM84.3997 97.1768L85.4544 91.0244L83.4831 90.6865L82.4284 96.8388L84.3997 97.1768ZM85.4526 91.0344C85.5824 90.3208 85.5088 89.5293 85.0055 88.9002C84.4931 88.2598 83.7067 88 82.8672 88V90C83.3167 90 83.4287 90.1308 83.4437 90.1496C83.4678 90.1797 83.5505 90.3159 83.4849 90.6766L85.4526 91.0344ZM82.8672 88H80.4062V90H82.8672V88ZM81.3887 88.8133L77.6582 69.1844L75.6934 69.5578L79.4238 89.1867L81.3887 88.8133ZM76.6758 70.3711H80.5039V68.3711H76.6758V70.3711ZM79.5184 69.5407L82.2918 85.654L84.2629 85.3147L81.4894 69.2015L79.5184 69.5407ZM82.2884 85.6327C82.4067 86.4212 83.0075 87.0898 83.8828 87.0898V85.0898C83.9904 85.0898 84.1018 85.1331 84.1827 85.2102C84.2603 85.2843 84.2681 85.3479 84.2663 85.336L82.2884 85.6327ZM83.8828 87.0898H84.8398V85.0898H83.8828V87.0898ZM84.8398 87.0898C85.7512 87.0898 86.2852 86.384 86.4259 85.6805L84.4647 85.2883C84.4555 85.3346 84.4535 85.2874 84.5244 85.2182C84.5604 85.1831 84.6092 85.1487 84.6696 85.1241C84.73 85.0995 84.7891 85.0898 84.8398 85.0898V87.0898ZM86.4314 85.6505L89.1463 69.5372L87.1741 69.205L84.4592 85.3182L86.4314 85.6505Z" fill="#E4E4E4" mask="url(#path-1-outside-1_208_285)"/>
<path d="M31 50L26 36L49.5 27L41.5 50H31Z" fill="#1A1818"/>
<path d="M68.4836 21.7315L52.6689 9.77404C51.2743 8.71961 49.2934 9.83611 49.4733 11.5752L53.3144 48.7058C53.4199 49.7253 54.2789 50.5 55.3038 50.5H61.8832C62.8262 50.5 63.6412 49.8412 63.8388 48.9191L69.233 23.7459C69.3959 22.9859 69.1036 22.2003 68.4836 21.7315Z" fill="#1A1818"/>
<path d="M41.3087 0.690679C42.2494 0.172533 43.4412 0.486089 43.9102 1.45222C45.136 3.97716 45.8398 6.71131 45.9754 9.50377C46.1418 12.9316 45.4471 16.3477 43.9494 19.4665C42.4517 22.5854 40.1946 25.3164 37.3666 27.4313C35.0573 29.1582 32.4222 30.4334 29.6121 31.1914C28.5582 31.4757 27.5232 30.7646 27.3106 29.6939L23.7845 11.9353C23.6148 11.0806 24.018 10.2144 24.7813 9.794L41.3087 0.690679Z" fill="#1A1818"/>
<path d="M12.0761 43.0672L22.8159 31.2529C23.2458 30.78 23.4238 30.1302 23.2949 29.5043L21.2921 19.7764C20.8967 17.8555 18.2576 17.5898 17.4864 19.393C16.3621 22.022 15.0554 25.0678 14 27.5002C12.1646 31.7306 9.5926 37.5559 8.13206 40.8564C7.57726 42.1101 8.41984 43.5357 9.78541 43.6575L10.4185 43.714C11.0418 43.7696 11.6552 43.5303 12.0761 43.0672Z" fill="#1A1818"/>
<path d="M73.5441 25.6108C73.8014 25.833 73.9552 26.1519 73.9687 26.4916C74.0272 27.9558 71.9344 28.2741 71.5548 26.8587C71.2415 25.6901 72.6282 24.8201 73.5441 25.6108Z" fill="#1A1818"/>
</svg>
